<svg viewBox="0 0 24 24" fill="none" xmlns="http://www.w3.org/2000/svg">
<g id="Sticker">
<path id="Vector" d="M15.75 3H8.25C6.85761 3 5.52226 3.55312 4.53769 4.53769C3.55312 5.52226 3 6.85761 3 8.25V15.75C3 17.1424 3.55312 18.4777 4.53769 19.4623C5.52226 20.4469 6.85761 21 8.25 21H12.75C12.8298 21.0021 12.9092 20.9893 12.9844 20.9625C15.45 20.1375 20.1375 15.45 20.9625 12.9844C20.9893 12.9092 21.0021 12.8298 21 12.75V8.25C21 6.85761 20.4469 5.52226 19.4623 4.53769C18.4777 3.55312 17.1424 3 15.75 3ZM12.75 19.4437V16.5C12.75 15.5054 13.1451 14.5516 13.8483 13.8483C14.5516 13.1451 15.5054 12.75 16.5 12.75H19.4437C18.5812 14.775 14.775 18.5812 12.75 19.4437Z" fill="#FF4310"/>
</g>
</svg>
