<svg viewBox="0 0 24 24" fill="none" xmlns="http://www.w3.org/2000/svg">
<g id="Globe">
<path id="Vector" d="M21.1782 15.3L21.2063 15.2062C21.9315 13.1303 21.9315 10.8697 21.2063 8.79375L21.1782 8.7C20.4963 6.81222 19.2494 5.18031 17.6072 4.02624C15.965 2.87218 14.0072 2.25197 12.0001 2.25C9.99289 2.25197 8.03506 2.87218 6.39286 4.02624C4.75066 5.18031 3.50382 6.81222 2.82193 8.7L2.7938 8.79375C2.06857 10.8697 2.06857 13.1303 2.7938 15.2062L2.82193 15.3C3.50614 17.1863 4.75356 18.8167 6.39524 19.9704C8.03692 21.1241 9.99353 21.7453 12.0001 21.75C14.0072 21.748 15.965 21.1278 17.6072 19.9738C19.2494 18.8197 20.4963 17.1878 21.1782 15.3ZM12.0001 4.275C13.0922 5.39841 13.9103 6.75871 14.3907 8.25H9.60943C10.0898 6.75871 10.9079 5.39841 12.0001 4.275ZM9.60943 15.75H14.3907C13.9103 17.2413 13.0922 18.6016 12.0001 19.725C10.9079 18.6016 10.0898 17.2413 9.60943 15.75ZM9.21568 14.25C8.92825 12.7638 8.92825 11.2362 9.21568 9.75H14.7844C15.0718 11.2362 15.0718 12.7638 14.7844 14.25H9.21568ZM16.3126 9.75H19.9407C20.3533 11.2216 20.3533 12.7784 19.9407 14.25H16.3126C16.5626 12.7604 16.5626 11.2396 16.3126 9.75ZM19.35 8.25H15.975C15.524 6.6706 14.7551 5.19994 13.7157 3.92813C14.9159 4.18728 16.0437 4.7093 17.018 5.45661C17.9923 6.20393 18.7887 7.15795 19.35 8.25ZM13.7157 20.0719C14.7551 18.8001 15.524 17.3294 15.975 15.75H19.35C18.7887 16.8421 17.9923 17.7961 17.018 18.5434C16.0437 19.2907 14.9159 19.8127 13.7157 20.0719Z" fill="#FF4310"/>
</g>
</svg>
