<svg viewBox="0 0 24 25" fill="none" xmlns="http://www.w3.org/2000/svg">
<g id="Trophy">
<path id="Vector" d="M21.75 6.5H19.5V5.75C19.5 5.35218 19.3419 4.97064 19.0606 4.68934C18.7793 4.40804 18.3978 4.25 18 4.25H5.99998C5.60215 4.25 5.22062 4.40804 4.93932 4.68934C4.65801 4.97064 4.49998 5.35218 4.49998 5.75V6.5H2.2406C1.84278 6.5 1.46125 6.65804 1.17994 6.93934C0.898636 7.22064 0.740601 7.60218 0.740601 8V9.5C0.740601 10.4946 1.13569 11.4484 1.83895 12.1517C2.54221 12.8549 3.49604 13.25 4.4906 13.25H4.8656C5.77498 16.0531 8.25935 18.1531 11.25 18.4625V20.75H8.99998C8.80106 20.75 8.6103 20.829 8.46965 20.9697C8.32899 21.1103 8.24998 21.3011 8.24998 21.5C8.24998 21.6989 8.32899 21.8897 8.46965 22.0303C8.6103 22.171 8.80106 22.25 8.99998 22.25H15C15.1989 22.25 15.3897 22.171 15.5303 22.0303C15.671 21.8897 15.75 21.6989 15.75 21.5C15.75 21.3011 15.671 21.1103 15.5303 20.9697C15.3897 20.829 15.1989 20.75 15 20.75H12.75V18.4625C14.2114 18.319 15.5981 17.7481 16.7369 16.821C17.8757 15.894 18.7161 14.6519 19.1531 13.25H19.5C20.4945 13.25 21.4484 12.8549 22.1516 12.1517C22.8549 11.4484 23.25 10.4946 23.25 9.5V8C23.25 7.60218 23.0919 7.22064 22.8106 6.93934C22.5293 6.65804 22.1478 6.5 21.75 6.5ZM4.4906 11.75C3.89386 11.75 3.32157 11.5129 2.89961 11.091C2.47765 10.669 2.2406 10.0967 2.2406 9.5V8H4.49998V10.9156C4.50132 11.1944 4.51696 11.4729 4.54685 11.75H4.4906ZM21.75 9.5C21.7475 10.096 21.5097 10.6668 21.0882 11.0883C20.6668 11.5097 20.096 11.7475 19.5 11.75H19.4625C19.4892 11.5009 19.5017 11.2505 19.5 11V8H21.75V9.5Z" fill="#FF4310"/>
</g>
</svg>
