<svg viewBox="0 0 24 24" fill="none" xmlns="http://www.w3.org/2000/svg">
<g id="House">
<path id="Vector" d="M20.5125 9.7219L13.0125 2.90627C12.7359 2.6533 12.3747 2.513 12 2.513C11.6252 2.513 11.264 2.6533 10.9875 2.90627L3.48746 9.7219C3.3339 9.86238 3.21125 10.0333 3.12733 10.2237C3.0434 10.4142 3.00002 10.62 2.99996 10.8281V19.4625C2.99386 19.8407 3.12737 20.2078 3.37496 20.4938C3.51548 20.6536 3.68858 20.7814 3.88263 20.8687C4.07667 20.9561 4.28717 21.0008 4.49996 21H8.99996C9.19887 21 9.38963 20.921 9.53029 20.7804C9.67094 20.6397 9.74996 20.4489 9.74996 20.25V15.75C9.74996 15.5511 9.82897 15.3603 9.96963 15.2197C10.1103 15.079 10.301 15 10.5 15H13.5C13.6989 15 13.8896 15.079 14.0303 15.2197C14.1709 15.3603 14.25 15.5511 14.25 15.75V20.25C14.25 20.4489 14.329 20.6397 14.4696 20.7804C14.6103 20.921 14.801 21 15 21H19.5C19.7487 21.0022 19.994 20.9409 20.2125 20.8219C20.4502 20.6924 20.6487 20.5014 20.7873 20.2688C20.9258 20.0363 20.9993 19.7707 21 19.5V10.8281C20.9999 10.62 20.9565 10.4142 20.8726 10.2237C20.7887 10.0333 20.666 9.86238 20.5125 9.7219Z" fill="#FF4310"/>
</g>
</svg>
