<svg viewBox="0 0 24 24" fill="none" xmlns="http://www.w3.org/2000/svg">
<g id="User">
<path id="Vector" d="M21.7407 19.875C20.3412 17.4643 18.1012 15.6549 15.45 14.7938C16.7208 14.0381 17.7083 12.8862 18.2609 11.5148C18.8134 10.1435 18.9005 8.62868 18.5086 7.20309C18.1168 5.7775 17.2677 4.51998 16.0919 3.62373C14.9161 2.72748 13.4785 2.24207 12 2.24207C10.5216 2.24207 9.08399 2.72748 7.90815 3.62373C6.73231 4.51998 5.88326 5.7775 5.49141 7.20309C5.09957 8.62868 5.18662 10.1435 5.73918 11.5148C6.29175 12.8862 7.27926 14.0381 8.55003 14.7938C5.89887 15.6549 3.65884 17.4643 2.2594 19.875C2.1907 19.9881 2.15436 20.1178 2.15436 20.25C2.15436 20.3823 2.1907 20.512 2.2594 20.625C2.32351 20.74 2.41744 20.8355 2.53129 20.9015C2.64514 20.9675 2.77469 21.0015 2.90628 21H21.0938C21.2254 21.0015 21.3549 20.9675 21.4688 20.9015C21.5826 20.8355 21.6765 20.74 21.7407 20.625C21.8094 20.512 21.8457 20.3823 21.8457 20.25C21.8457 20.1178 21.8094 19.9881 21.7407 19.875Z" fill="#FF4310"/>
</g>
</svg>
