<svg width="24" height="24" viewBox="0 0 24 24" fill="none" xmlns="http://www.w3.org/2000/svg">
<g id="Arrow_kardo_orange">
<path id="Arrow " d="M20.864 3.36396L20.864 2.86397L20.364 2.86396L20.364 3.36396L20.364 2.86396L20.3639 2.86396L20.3638 2.86396L20.3634 2.86396L20.3618 2.86396L20.3552 2.86396L20.3295 2.86396L20.2306 2.86396L19.8669 2.86395L18.6669 2.86394L17.4669 2.86395L17.1032 2.86396L17.0043 2.86396L16.9786 2.86396L16.972 2.86396L16.9704 2.86396L16.97 2.86396L16.9699 2.86396L16.9698 2.86396L16.9698 3.36396L16.9698 2.86396L16.4698 2.86397L16.4698 3.36396L16.4698 13.3561L6.9242 4.06625L6.57071 3.72223L6.22193 4.07102L3.82193 6.47102L3.46354 6.8294L3.82676 7.18289L13.3392 16.4404L3.3934 16.4404L2.89342 16.4404L2.8934 16.9404L3.3934 16.9404L2.8934 16.9404L2.8934 16.9404L2.8934 16.9405L2.8934 16.9409L2.8934 16.9426L2.8934 16.9492L2.8934 16.9749L2.8934 17.0738L2.89339 17.4375L2.89337 18.6375L2.89339 19.8375L2.8934 20.2012L2.8934 20.3001L2.8934 20.3258L2.8934 20.3323L2.8934 20.334L2.8934 20.3344L2.8934 20.3345L2.8934 20.3345L3.3934 20.3345L2.8934 20.3345L2.89342 20.8345L3.3934 20.8345L18.6669 20.8345L20.1518 20.8345L20.3374 20.8345L20.3457 20.8345L20.864 20.8724L20.864 20.3345L20.864 3.36396Z" stroke="#FF4310"/>
</g>
</svg>
