<svg viewBox="0 0 24 24" fill="none" xmlns="http://www.w3.org/2000/svg">
<path d="M5.39556 9.75006C5.39434 8.86092 5.56572 7.98032 5.89984 7.15898C6.23396 6.33763 6.72422 5.59178 7.34238 4.96437C7.96053 4.33696 8.69438 3.8404 9.50163 3.50328C10.3089 3.16617 11.1736 2.99516 12.046 3.0001C15.6886 3.02823 18.6044 6.11258 18.6044 9.83443V10.5001C18.6044 13.8563 19.2943 15.8063 19.9014 16.875C19.9659 16.9888 19.9999 17.1179 20 17.2493C20.0001 17.3808 19.9663 17.5099 19.9021 17.6239C19.8378 17.7378 19.7453 17.8325 19.6337 17.8985C19.5222 17.9645 19.3957 17.9995 19.2667 18H4.73328C4.60433 17.9995 4.47776 17.9645 4.36625 17.8985C4.25475 17.8325 4.16222 17.7378 4.09794 17.6239C4.03366 17.5099 3.99989 17.3808 4 17.2493C4.00011 17.1179 4.03411 16.9888 4.09859 16.875C4.70568 15.8063 5.39556 13.8563 5.39556 10.5001V9.75006Z" stroke="#F1F1F1" stroke-width="1.5" stroke-linecap="round" stroke-linejoin="round"/>
<path d="M9 18V18.8C9 19.6487 9.31607 20.4626 9.87868 21.0627C10.4413 21.6629 11.2044 22 12 22C12.7956 22 13.5587 21.6629 14.1213 21.0627C14.6839 20.4626 15 19.6487 15 18.8V18" stroke="#F1F1F1" stroke-width="1.5" stroke-linecap="round" stroke-linejoin="round"/>
</svg>
