<svg width="25" height="24" viewBox="0 0 25 24" fill="none" xmlns="http://www.w3.org/2000/svg">
<g id="Camera">
<path id="Vector" d="M20 19.5H5C4.60218 19.5 4.22064 19.342 3.93934 19.0607C3.65804 18.7794 3.5 18.3978 3.5 18V7.5C3.5 7.10218 3.65804 6.72064 3.93934 6.43934C4.22064 6.15804 4.60218 6 5 6H8L9.5 3.75H15.5L17 6H20C20.3978 6 20.7794 6.15804 21.0607 6.43934C21.342 6.72064 21.5 7.10218 21.5 7.5V18C21.5 18.3978 21.342 18.7794 21.0607 19.0607C20.7794 19.342 20.3978 19.5 20 19.5Z" stroke="#F1F1F1" stroke-width="1.5" stroke-linecap="round" stroke-linejoin="round"/>
<path id="Vector_2" d="M12.5 15.75C14.364 15.75 15.875 14.239 15.875 12.375C15.875 10.511 14.364 9 12.5 9C10.636 9 9.125 10.511 9.125 12.375C9.125 14.239 10.636 15.75 12.5 15.75Z" stroke="#F1F1F1" stroke-width="1.5" stroke-linecap="round" stroke-linejoin="round"/>
</g>
</svg>
