<svg width="18" height="20" viewBox="0 0 18 20" fill="none" xmlns="http://www.w3.org/2000/svg">
<g id="Group">
<path id="Vector" d="M9 17L1 17M17 3L14 3M17 17L13 17M10 3L0.999999 3M4 10L1 10M17 10L8 10" stroke="#F1F1F1" stroke-linecap="round"/>
<path id="Vector_2" d="M13 17C13 15.8954 12.1046 15 11 15C9.89543 15 9 15.8954 9 17C9 18.1046 9.89543 19 11 19C12.1046 19 13 18.1046 13 17Z" stroke="#F1F1F1" stroke-linecap="round"/>
<path id="Vector_3" d="M8 10C8 8.89543 7.10457 8 6 8C4.89543 8 4 8.89543 4 10C4 11.1046 4.89543 12 6 12C7.10457 12 8 11.1046 8 10Z" stroke="#F1F1F1" stroke-linecap="round"/>
<path id="Vector_4" d="M14 3C14 1.89543 13.1046 1 12 1C10.8954 1 10 1.89543 10 3C10 4.10457 10.8954 5 12 5C13.1046 5 14 4.10457 14 3Z" stroke="#F1F1F1" stroke-linecap="round"/>
</g>
</svg>
