<svg width="25" height="24" viewBox="0 0 25 24" fill="none" xmlns="http://www.w3.org/2000/svg">
<g clip-path="url(#clip0_1617_16713)">
<path d="M0.5 11.52C0.5 6.08942 0.5 3.37414 2.18707 1.68707C3.87414 0 6.58942 0 12.02 0H12.98C18.4106 0 21.1259 0 22.8129 1.68707C24.5 3.37414 24.5 6.08942 24.5 11.52V12.48C24.5 17.9106 24.5 20.6259 22.8129 22.3129C21.1259 24 18.4106 24 12.98 24H12.02C6.58942 24 3.87414 24 2.18707 22.3129C0.5 20.6259 0.5 17.9106 0.5 12.48V11.52Z" fill="#0077FF"/>
<path d="M13.2708 17.29C7.80076 17.29 4.68079 13.54 4.55078 7.30005H7.29079C7.38079 11.88 9.40075 13.82 11.0007 14.22V7.30005H13.5808V11.25C15.1608 11.08 16.8206 9.28005 17.3806 7.30005H19.9607C19.5307 9.74006 17.7307 11.54 16.4507 12.28C17.7307 12.88 19.7808 14.45 20.5608 17.29H17.7207C17.1107 15.39 15.5908 13.92 13.5808 13.72V17.29H13.2708Z" fill="white"/>
</g>
<defs>
<clipPath id="clip0_1617_16713">
<rect width="24" height="24" fill="white" transform="translate(0.5)"/>
</clipPath>
</defs>
</svg>
