<svg width="24" height="24" viewBox="0 0 24 24" fill="none" xmlns="http://www.w3.org/2000/svg">
<g id="radix-icons:radiobutton">
<path id="Vector" fill-rule="evenodd" clip-rule="evenodd" d="M12 3C9.61305 3 7.32387 3.94821 5.63604 5.63604C3.94821 7.32387 3 9.61305 3 12C3 14.3869 3.94821 16.6761 5.63604 18.364C7.32387 20.0518 9.61305 21 12 21C14.3869 21 16.6761 20.0518 18.364 18.364C20.0518 16.6761 21 14.3869 21 12C21 9.61305 20.0518 7.32387 18.364 5.63604C16.6761 3.94821 14.3869 3 12 3ZM4.29096 12C4.29096 9.95543 5.10316 7.99461 6.54888 6.54888C7.99461 5.10316 9.95543 4.29096 12 4.29096C14.0446 4.29096 16.0054 5.10316 17.4511 6.54888C18.8968 7.99461 19.709 9.95543 19.709 12C19.709 14.0446 18.8968 16.0054 17.4511 17.4511C16.0054 18.8968 14.0446 19.709 12 19.709C9.95543 19.709 7.99461 18.8968 6.54888 17.4511C5.10316 16.0054 4.29096 14.0446 4.29096 12ZM12 14.7178C12.7208 14.7178 13.4121 14.4315 13.9218 13.9218C14.4315 13.4121 14.7178 12.7208 14.7178 12C14.7178 11.2792 14.4315 10.5879 13.9218 10.0782C13.4121 9.56854 12.7208 9.2822 12 9.2822C11.2792 9.2822 10.5879 9.56854 10.0782 10.0782C9.56854 10.5879 9.2822 11.2792 9.2822 12C9.2822 12.7208 9.56854 13.4121 10.0782 13.9218C10.5879 14.4315 11.2792 14.7178 12 14.7178Z" fill="#FF4310"/>
</g>
</svg>
