<svg width="24" height="24" viewBox="0 0 24 24" fill="none" xmlns="http://www.w3.org/2000/svg">
<g id="material-symbols-light:search">
<path id="Vector" d="M19.3086 20L13.1938 13.8851C12.7055 14.3011 12.144 14.6231 11.5093 14.8509C10.8746 15.0788 10.2366 15.1927 9.59536 15.1927C8.03165 15.1927 6.70817 14.6514 5.6249 13.5688C4.54163 12.4861 4 11.163 4 9.59927C4 8.03556 4.54098 6.71175 5.62295 5.62783C6.70491 4.54391 8.02775 4.0013 9.59145 4C11.1552 3.9987 12.4793 4.54033 13.5639 5.6249C14.6484 6.70947 15.1907 8.03328 15.1907 9.59634C15.1907 10.2747 15.0706 10.9312 14.8304 11.5659C14.5902 12.2007 14.2744 12.7436 13.8832 13.1948L19.998 19.3086L19.3086 20ZM9.59634 14.2152C10.8918 14.2152 11.9855 13.7693 12.8774 12.8774C13.7693 11.9855 14.2152 10.8915 14.2152 9.59536C14.2152 8.29922 13.7693 7.20554 12.8774 6.31431C11.9855 5.42309 10.8918 4.97716 9.59634 4.97651C8.30084 4.97585 7.20684 5.42179 6.31431 6.31431C5.42179 7.20684 4.97585 8.30052 4.9765 9.59536C4.97715 10.8902 5.42309 11.9839 6.31431 12.8764C7.20553 13.7689 8.29922 14.2149 9.59536 14.2142" fill="#F1F1F1"/>
</g>
</svg>
