<svg width="25" height="24" viewBox="0 0 25 24" fill="none" xmlns="http://www.w3.org/2000/svg">
<g clip-path="url(#clip0_1617_16709)">
<path d="M12.5009 23.9755C19.1149 23.9755 24.4765 18.6139 24.4765 12C24.4765 5.38606 19.1149 0.0244141 12.5009 0.0244141C5.88703 0.0244141 0.525391 5.38606 0.525391 12C0.525391 18.6139 5.88703 23.9755 12.5009 23.9755Z" fill="#FC3F1D"/>
<path d="M16.8334 19.5175H14.2046V6.51529H13.0334C10.8868 6.51529 9.76233 7.58862 9.76233 9.19084C9.76233 11.0086 10.5379 11.8508 12.1423 12.9242L13.4646 13.8153L9.66456 19.5153H6.83789L10.2579 14.4264C8.29122 13.022 7.18456 11.6508 7.18456 9.33751C7.18456 6.4464 9.20011 4.47974 13.0157 4.47974H16.8157V19.5131H16.8334V19.5175Z" fill="white"/>
</g>
<defs>
<clipPath id="clip0_1617_16709">
<rect width="24" height="24" fill="white" transform="translate(0.5)"/>
</clipPath>
</defs>
</svg>
